<svg xmlns="http://www.w3.org/2000/svg" viewBox="0 0 64 64">
  <defs>
    <linearGradient id="grad" x1="0%" y1="0%" x2="100%" y2="100%">
      <stop offset="0%" style="stop-color:#6366f1;stop-opacity:1" />
      <stop offset="100%" style="stop-color:#a855f7;stop-opacity:1" />
    </linearGradient>
  </defs>
  <rect width="64" height="64" rx="12" fill="url(#grad)"/>
  <path d="M 45 15 L 45 40 C 45 43.866 41.866 47 38 47 C 34.134 47 31 43.866 31 40 C 31 36.134 34.134 33 38 33 C 39.657 33 41.182 33.62 42.346 34.641 L 45 32.5 L 45 23.5 L 28 27.5 L 28 45 C 28 48.866 24.866 52 21 52 C 17.134 52 14 48.866 14 45 C 14 41.134 17.134 38 21 38 C 22.657 38 24.182 38.62 25.346 39.641 L 28 37.5 L 28 22 L 45 15 Z" fill="white"/>
</svg>
